<svg height="48" viewBox="0 0 153 48" width="153" xmlns="http://www.w3.org/2000/svg"><path d="m0 0h153v48h-153z" fill="none"/><path d="m0 0h48.001v48h-48.001z" fill="#b72a1e"/><path d="m32.784 15.435v-4.533h-14.263v9.726h-.387-2.691v3.095h.853 2.225v2.447h-.477-2.601v3.098h.761 2.317v9.522h5.501v-9.522h4.884l1.381-3.098h-6.265v-1.039-1.408h7.384l1.378-3.095h-8.762v-5.193z" fill="#fff"/><g fill="#035a90"><path d="m73.022 19.19h4.724v15.171h-4.724zm18.5 15.14v-2.136h-.058a5.689 5.689 0 0 1 -4.961 2.552c-4.246 0-7.127-3.827-7.127-8.071s2.677-8.012 7.065-8.012a5.526 5.526 0 0 1 4.844 2.493h.061v-10.322h4.272v23.5zm-.03-7.595c0-2.29-1.247-4.448-3.919-4.448-2.462 0-3.741 2.2-3.741 4.509 0 2.4 1.336 4.51 3.858 4.51 2.435 0 3.8-2.017 3.8-4.571m21.214 0v1.187h-11.157a3.589 3.589 0 0 0 3.561 3.562 3.3 3.3 0 0 0 3.059-1.812l4.158.322c-1.039 3.122-3.833 4.752-7.424 4.752-4.606 0-7.809-3.144-7.809-8.011 0-4.926 3.2-8.072 7.809-8.072s7.809 3.146 7.809 8.072m-4.271-1.543a3.451 3.451 0 0 0 -6.892 0zm5.82-13.96v23.1h4.28v-23.5h-4.28zm8.506-.937a2.569 2.569 0 0 0 -2.5 2.523 2.494 2.494 0 1 0 2.5-2.523m-47.384 0a2.569 2.569 0 0 0 -2.492 2.523 2.492 2.492 0 1 0 2.492-2.518m45.243 24.03h4.281v-15.252h-4.281zm14.415-3.354a3.479 3.479 0 0 1 -.859.091c-1.1 0-1.393-.327-1.393-1.009v-7.719h2.252v-3.262h-2.252v-4.771h-4.279v4.771h-1.956v3.262h1.956v8.193c0 3.293 1.693 3.976 4.485 3.976a16.141 16.141 0 0 0 2.046-.178zm5.3 7.693h4.468l7.393-19.592h-4.7l-3.236 10.089h-.058l-3.24-10.089h-4.685l5.727 15.253zm-83.839-15.234v2.656h2.245v8.326h4.719v-8.326h4.457l1.182-2.656h-5.637v-1.55h6.334l1.183-2.657h-7.517v-4.457h7.514v-3.871h-12.233v8.333h-2.247v2.657h2.245v1.55z"/><path d="m60.05 47.9h-1.3v-5.368h1.3zm4.735-3.056 1.954 3.056h1.3v-5.368h-1.3v3.016l-1.954-3.016h-1.3v5.368h1.3zm8.731-1.255h1.23v-1.057h-3.772v1.053h1.239v4.315h1.3zm5.346 0h1.769v-1.057h-3.071v5.368h3.071v-1.057h-1.769v-1.11h1.769v-1.054h-1.769zm6.343 2.235 1.174 2.076h1.559l-1.182-1.97a1.592 1.592 0 0 0 1.038-1.633 1.672 1.672 0 0 0 -.58-1.359 2.527 2.527 0 0 0 -1.575-.4h-1.739v5.362h1.3zm0-.731v-1.493h.5a.715.715 0 0 1 .771.749c0 .466-.313.739-.851.739zm7.251-.249 1.955 3.056h1.3v-5.368h-1.3v3.016l-1.955-3.016h-1.3v5.368h1.3zm9.654 2.284.234.772h1.431l-1.76-5.365h-1.658l-1.769 5.365h1.391l.233-.772zm-.321-1.055h-1.255l.627-2zm6.706-2.484h1.23v-1.057h-3.772v1.053h1.239v4.315h1.3zm5.989-1.053h-1.3v5.364h1.3zm8.688 2.694a2.963 2.963 0 0 0 -.21-1.112 2.656 2.656 0 0 0 -1.462-1.478 2.9 2.9 0 0 0 -1.1-.212 3.258 3.258 0 0 0 -.573.049 2.873 2.873 0 0 0 -.53.144 2.7 2.7 0 0 0 -.48.234 2.66 2.66 0 0 0 -.419.321 3 3 0 0 0 -.388.445 2.8 2.8 0 0 0 -.281.5 2.692 2.692 0 0 0 -.172.542 2.792 2.792 0 0 0 -.059.573 2.711 2.711 0 0 0 .835 1.961 2.858 2.858 0 0 0 .911.589 3.019 3.019 0 0 0 1.124.215 2.831 2.831 0 0 0 1.093-.218 2.788 2.788 0 0 0 1.493-1.475 2.74 2.74 0 0 0 .22-1.081m-4.35-.008a1.723 1.723 0 0 1 .116-.631 1.5 1.5 0 0 1 .319-.5 1.464 1.464 0 0 1 .484-.331 1.578 1.578 0 0 1 .609-.119 1.49 1.49 0 0 1 .6.122 1.435 1.435 0 0 1 .477.338 1.559 1.559 0 0 1 .315.509 1.786 1.786 0 0 1 .114.638 1.576 1.576 0 0 1 -.119.605 1.536 1.536 0 0 1 -.324.493 1.488 1.488 0 0 1 -1.069.454 1.484 1.484 0 0 1 -1.079-.457 1.543 1.543 0 0 1 -.323-.5 1.656 1.656 0 0 1 -.118-.619m8.508-.378 1.955 3.056h1.3v-5.367h-1.3v3.016l-1.955-3.016h-1.3v5.368h1.3zm9.712 2.284.234.772h1.43l-1.761-5.365h-1.657l-1.772 5.366h1.39l.233-.772zm-.323-1.055h-1.254l.628-2zm6.208.774v-4.314h-1.3v5.368h3.048v-1.057z"/></g></svg>