<svg width="80" height="80" viewBox="0 0 80 80" fill="none" xmlns="http://www.w3.org/2000/svg">
<g clip-path="url(#clip0_236_425)">
<path d="M35.4231 62.8848V52.3442C35.4303 52.1631 35.5073 51.9918 35.638 51.8662C35.7686 51.7406 35.9429 51.6704 36.1241 51.6704C36.3054 51.6704 36.4796 51.7406 36.6103 51.8662C36.7409 51.9918 36.8179 52.1631 36.8251 52.3442V57.1969C36.8251 57.2899 36.8621 57.3791 36.9278 57.4449C36.9936 57.5107 37.0828 57.5476 37.1759 57.5476C37.2689 57.5476 37.3581 57.5107 37.4239 57.4449C37.4897 57.3791 37.5266 57.2899 37.5266 57.1969V50.3328C37.5266 50.1584 37.5959 49.9911 37.7193 49.8677C37.8426 49.7444 38.0099 49.6751 38.1843 49.6751C38.3587 49.6751 38.526 49.7444 38.6494 49.8677C38.7727 49.9911 38.842 50.1584 38.842 50.3328V56.7157C38.8392 56.7692 38.8473 56.8227 38.8658 56.8729C38.8843 56.9232 38.9129 56.9692 38.9498 57.008C38.9866 57.0469 39.031 57.0778 39.0803 57.099C39.1295 57.1202 39.1825 57.1311 39.2361 57.1311C39.2896 57.1311 39.3427 57.1202 39.3919 57.099C39.4411 57.0778 39.4855 57.0469 39.5224 57.008C39.5592 56.9692 39.5878 56.9232 39.6063 56.8729C39.6249 56.8227 39.633 56.7692 39.6301 56.7157V50.1574C39.6373 49.9763 39.7143 49.805 39.845 49.6794C39.9756 49.5538 40.1499 49.4836 40.3311 49.4836C40.5124 49.4836 40.6866 49.5538 40.8173 49.6794C40.948 49.805 41.0249 49.9763 41.0321 50.1574V56.7157C41.0321 56.8203 41.0737 56.9207 41.1477 56.9947C41.2217 57.0687 41.3221 57.1103 41.4267 57.1103C41.5314 57.1103 41.6317 57.0687 41.7057 56.9947C41.7798 56.9207 41.8213 56.8203 41.8213 56.7157V50.1574C41.8285 49.9763 41.9055 49.805 42.0362 49.6794C42.1668 49.5538 42.3411 49.4836 42.5223 49.4836C42.7036 49.4836 42.8778 49.5538 43.0085 49.6794C43.1391 49.805 43.2161 49.9763 43.2233 50.1574V57.9861C43.2233 58.1024 43.2695 58.2139 43.3517 58.2961C43.4339 58.3784 43.5455 58.4246 43.6618 58.4246C43.778 58.4246 43.8896 58.3784 43.9718 58.2961C44.054 58.2139 44.1002 58.1024 44.1002 57.9861V55.3619C44.1002 55.1875 44.1695 55.0202 44.2928 54.8969C44.4162 54.7735 44.5835 54.7042 44.7579 54.7042C44.9323 54.7042 45.0996 54.7735 45.223 54.8969C45.3463 55.0202 45.4156 55.1875 45.4156 55.3619V62.9538C45.4156 64.1256 44.1594 66.9953 40.3909 66.9953C36.6223 66.9953 35.4231 64.4018 35.4231 62.8848Z" fill="#953734"/>
<path d="M35.4231 16.2975V26.838C35.4193 26.9324 35.4347 27.0266 35.4682 27.1149C35.5018 27.2032 35.5528 27.2838 35.6183 27.3519C35.6837 27.42 35.7623 27.4742 35.8492 27.5112C35.9361 27.5482 36.0296 27.5673 36.124 27.5673C36.2185 27.5673 36.312 27.5482 36.3989 27.5112C36.4858 27.4742 36.5644 27.42 36.6298 27.3519C36.6953 27.2838 36.7463 27.2032 36.7799 27.1149C36.8134 27.0266 36.8288 26.9324 36.825 26.838V21.9854C36.825 21.8923 36.862 21.8031 36.9278 21.7373C36.9936 21.6716 37.0828 21.6346 37.1758 21.6346C37.2688 21.6346 37.358 21.6716 37.4238 21.7373C37.4896 21.8031 37.5266 21.8923 37.5266 21.9854V28.8494C37.5266 29.0239 37.5959 29.1911 37.7192 29.3145C37.8425 29.4378 38.0098 29.5071 38.1843 29.5071C38.3587 29.5071 38.526 29.4378 38.6493 29.3145C38.7727 29.1911 38.8419 29.0239 38.8419 28.8494V22.471C38.8391 22.4175 38.8472 22.3639 38.8657 22.3137C38.8843 22.2634 38.9128 22.2175 38.9497 22.1786C38.9866 22.1397 39.031 22.1088 39.0802 22.0876C39.1294 22.0665 39.1824 22.0556 39.236 22.0556C39.2896 22.0556 39.3426 22.0665 39.3918 22.0876C39.441 22.1088 39.4854 22.1397 39.5223 22.1786C39.5592 22.2175 39.5877 22.2634 39.6063 22.3137C39.6248 22.3639 39.6329 22.4175 39.6301 22.471V29.0292C39.6263 29.1236 39.6417 29.2178 39.6753 29.3061C39.7088 29.3944 39.7598 29.475 39.8253 29.5431C39.8907 29.6112 39.9693 29.6654 40.0562 29.7024C40.1431 29.7394 40.2366 29.7585 40.3311 29.7585C40.4255 29.7585 40.519 29.7394 40.6059 29.7024C40.6928 29.6654 40.7714 29.6112 40.8368 29.5431C40.9023 29.475 40.9533 29.3944 40.9869 29.3061C41.0204 29.2178 41.0358 29.1236 41.032 29.0292V22.471C41.032 22.3663 41.0736 22.2659 41.1476 22.1919C41.2216 22.1179 41.322 22.0763 41.4267 22.0763C41.5313 22.0763 41.6317 22.1179 41.7057 22.1919C41.7797 22.2659 41.8213 22.3663 41.8213 22.471V29.0292C41.8175 29.1236 41.8329 29.2178 41.8664 29.3061C41.9 29.3944 41.951 29.475 42.0165 29.5431C42.0819 29.6112 42.1605 29.6654 42.2474 29.7024C42.3343 29.7394 42.4278 29.7585 42.5222 29.7585C42.6167 29.7585 42.7102 29.7394 42.7971 29.7024C42.884 29.6654 42.9626 29.6112 43.028 29.5431C43.0935 29.475 43.1445 29.3944 43.1781 29.3061C43.2116 29.2178 43.227 29.1236 43.2232 29.0292V21.2027C43.2232 21.0864 43.2694 20.9749 43.3517 20.8927C43.4339 20.8105 43.5454 20.7643 43.6617 20.7643C43.778 20.7643 43.8895 20.8105 43.9717 20.8927C44.054 20.9749 44.1002 21.0864 44.1002 21.2027V23.8247C44.1002 23.9991 44.1694 24.1664 44.2928 24.2898C44.4161 24.4131 44.5834 24.4824 44.7578 24.4824C44.9323 24.4824 45.0996 24.4131 45.2229 24.2898C45.3462 24.1664 45.4155 23.9991 45.4155 23.8247V16.2284C45.4155 15.0577 44.1593 12.188 40.3908 12.188C36.6222 12.188 35.4231 14.7804 35.4231 16.2975Z" fill="#CB9898"/>
<path d="M58.2164 55.0747L49.0954 49.8045C48.9418 49.7079 48.8317 49.5556 48.788 49.3795C48.7443 49.2034 48.7706 49.0173 48.8612 48.8602C48.9518 48.703 49.0998 48.5871 49.274 48.5367C49.4483 48.4863 49.6353 48.5054 49.7958 48.5899L53.9951 51.0157C54.0758 51.0622 54.1717 51.0748 54.2616 51.0506C54.3515 51.0265 54.4282 50.9676 54.4747 50.8869C54.5212 50.8062 54.5338 50.7104 54.5096 50.6205C54.4855 50.5305 54.4266 50.4539 54.3459 50.4073L48.4059 46.9764C48.2582 46.8875 48.1514 46.7442 48.1083 46.5773C48.0652 46.4104 48.0894 46.2333 48.1756 46.0841C48.2618 45.9348 48.4031 45.8254 48.5692 45.7792C48.7352 45.7331 48.9128 45.7541 49.0636 45.8375L54.5882 49.0284C54.6331 49.0543 54.6826 49.0711 54.734 49.0779C54.7855 49.0846 54.8377 49.0812 54.8878 49.0677C54.9378 49.0543 54.9848 49.0311 55.0259 48.9996C55.067 48.968 55.1015 48.9286 55.1275 48.8837C55.1534 48.8388 55.1702 48.7892 55.1769 48.7378C55.1837 48.6864 55.1802 48.6342 55.1668 48.5841C55.1534 48.534 55.1302 48.4871 55.0986 48.4459C55.067 48.4048 55.0277 48.3703 54.9828 48.3444L49.308 45.0658C49.2257 45.0211 49.1532 44.9604 49.0947 44.8872C49.0362 44.814 48.993 44.7298 48.9676 44.6397C48.9422 44.5495 48.9351 44.4552 48.9467 44.3622C48.9583 44.2692 48.9885 44.1796 49.0353 44.0984C49.0822 44.0173 49.1448 43.9464 49.2195 43.8899C49.2942 43.8334 49.3795 43.7924 49.4703 43.7693C49.5611 43.7463 49.6556 43.7417 49.7482 43.7558C49.8408 43.7698 49.9297 43.8023 50.0096 43.8513L55.6843 47.1343C55.7292 47.1602 55.7788 47.177 55.8302 47.1837C55.8816 47.1905 55.9338 47.187 55.9839 47.1736C56.034 47.1602 56.0809 47.137 56.1221 47.1054C56.1632 47.0738 56.1977 47.0345 56.2236 46.9896C56.2495 46.9447 56.2663 46.8951 56.2731 46.8437C56.2798 46.7923 56.2764 46.74 56.263 46.6899C56.2495 46.6399 56.2263 46.5929 56.1948 46.5518C56.1632 46.5107 56.1238 46.4762 56.0789 46.4503L50.4009 43.1673C50.3185 43.1226 50.246 43.0619 50.1875 42.9887C50.1291 42.9155 50.0858 42.8313 50.0604 42.7411C50.035 42.651 50.0279 42.5566 50.0395 42.4637C50.0512 42.3707 50.0813 42.281 50.1282 42.1999C50.175 42.1188 50.2377 42.0479 50.3124 41.9914C50.3871 41.9348 50.4723 41.8938 50.5632 41.8708C50.654 41.8478 50.7485 41.8432 50.8411 41.8572C50.9337 41.8713 51.0226 41.9038 51.1024 41.9528L57.8766 45.8649C57.9773 45.9231 58.097 45.9388 58.2094 45.9087C58.3217 45.8786 58.4175 45.8051 58.4756 45.7043C58.5338 45.6036 58.5495 45.4839 58.5194 45.3716C58.4893 45.2592 58.4158 45.1634 58.315 45.1053L56.046 43.7954C55.8984 43.7065 55.7915 43.5632 55.7484 43.3963C55.7054 43.2294 55.7295 43.0523 55.8157 42.9031C55.9019 42.7538 56.0432 42.6443 56.2093 42.5982C56.3754 42.5521 56.5529 42.573 56.7037 42.6565L63.2729 46.4514C64.2857 47.0367 66.1415 49.56 64.2594 52.8265C62.3774 56.0931 59.5285 55.8333 58.2164 55.0747Z" fill="#CB9898"/>
<path d="M22.5982 55.0748L31.7192 49.8045C31.8751 49.7089 31.9875 49.5562 32.0325 49.379C32.0774 49.2017 32.0514 49.0139 31.96 48.8556C31.8685 48.6972 31.7188 48.5809 31.5428 48.5312C31.3668 48.4816 31.1784 48.5027 31.0177 48.59L26.8195 51.0157C26.7795 51.0388 26.7354 51.0537 26.6897 51.0597C26.644 51.0657 26.5975 51.0626 26.553 51.0507C26.5085 51.0387 26.4667 51.0181 26.4302 50.99C26.3936 50.9619 26.3629 50.9269 26.3399 50.8869C26.3169 50.847 26.3019 50.8029 26.2959 50.7572C26.29 50.7115 26.293 50.665 26.305 50.6205C26.3169 50.5759 26.3376 50.5342 26.3657 50.4976C26.3937 50.4611 26.4288 50.4304 26.4687 50.4074L32.4076 46.9764C32.4841 46.9341 32.5513 46.877 32.6055 46.8084C32.6596 46.7398 32.6995 46.6611 32.7229 46.5769C32.7463 46.4927 32.7526 46.4047 32.7416 46.3181C32.7306 46.2314 32.7024 46.1478 32.6587 46.0721C32.615 45.9964 32.5567 45.9302 32.4871 45.8774C32.4175 45.8245 32.3381 45.786 32.2535 45.7642C32.1689 45.7423 32.0808 45.7376 31.9943 45.7502C31.9079 45.7628 31.8248 45.7925 31.7499 45.8375L26.2265 49.0284C26.1359 49.0785 26.0292 49.0911 25.9295 49.0633C25.8298 49.0355 25.745 48.9697 25.6933 48.8799C25.6417 48.7902 25.6274 48.6838 25.6535 48.5836C25.6796 48.4834 25.7441 48.3975 25.8329 48.3444L31.5066 45.0659C31.5901 45.0219 31.6639 44.9615 31.7235 44.8883C31.7832 44.8151 31.8274 44.7307 31.8536 44.64C31.8798 44.5493 31.8875 44.4543 31.8761 44.3606C31.8647 44.2669 31.8346 44.1764 31.7874 44.0947C31.7403 44.0129 31.6771 43.9415 31.6017 43.8847C31.5263 43.8279 31.4402 43.7869 31.3486 43.7642C31.2569 43.7415 31.1617 43.7375 31.0685 43.7525C30.9753 43.7674 30.8861 43.8011 30.8062 43.8513L25.1325 47.1343C25.0418 47.1866 24.934 47.2008 24.8329 47.1736C24.7317 47.1465 24.6455 47.0803 24.5932 46.9896C24.5409 46.8989 24.5267 46.7911 24.5539 46.69C24.581 46.5888 24.6472 46.5026 24.7379 46.4503L30.4126 43.1717C30.5662 43.0751 30.6763 42.9228 30.72 42.7468C30.7637 42.5707 30.7374 42.3846 30.6468 42.2274C30.5562 42.0703 30.4082 41.9544 30.234 41.904C30.0597 41.8536 29.8727 41.8727 29.7122 41.9572L22.9402 45.8693C22.8395 45.9275 22.7198 45.9432 22.6074 45.9131C22.4951 45.883 22.3993 45.8095 22.3412 45.7087C22.283 45.608 22.2673 45.4883 22.2974 45.376C22.3275 45.2636 22.401 45.1678 22.5018 45.1097L24.773 43.7954C24.8494 43.7531 24.9167 43.696 24.9708 43.6274C25.0249 43.5588 25.0649 43.4801 25.0882 43.3959C25.1116 43.3117 25.118 43.2237 25.1069 43.137C25.0959 43.0504 25.0678 42.9667 25.0241 42.8911C24.9804 42.8154 24.922 42.7492 24.8525 42.6963C24.7829 42.6435 24.7035 42.605 24.6189 42.5832C24.5343 42.5613 24.4462 42.5566 24.3597 42.5692C24.2732 42.5818 24.1901 42.6115 24.1153 42.6565L17.5461 46.4514C16.5321 47.0367 14.6775 49.5601 16.5596 52.8266C18.4416 56.0931 21.285 55.8333 22.5982 55.0748Z" fill="#CB9898"/>
<path d="M63.1446 32.7671L54.0247 38.0363C53.8635 38.1293 53.6719 38.1545 53.4921 38.1063C53.3124 38.0581 53.1591 37.9404 53.0661 37.7792C52.973 37.618 52.9479 37.4265 52.9961 37.2467C53.0443 37.0669 53.1619 36.9137 53.3231 36.8207L57.5214 34.3949C57.5973 34.3462 57.6515 34.2702 57.6729 34.1827C57.6942 34.0951 57.6811 34.0027 57.6361 33.9245C57.5911 33.8464 57.5178 33.7886 57.4313 33.7631C57.3448 33.7376 57.2519 33.7464 57.1717 33.7876L51.2317 37.2197C51.0805 37.3069 50.9009 37.3305 50.7323 37.2852C50.5638 37.24 50.4201 37.1297 50.3328 36.9785C50.2456 36.8273 50.222 36.6477 50.2673 36.4791C50.3125 36.3106 50.4228 36.1669 50.574 36.0797L56.0964 32.8888C56.1432 32.8639 56.1845 32.8299 56.2179 32.7887C56.2513 32.7475 56.276 32.7 56.2907 32.6491C56.3053 32.5981 56.3095 32.5447 56.303 32.4921C56.2966 32.4395 56.2796 32.3887 56.253 32.3428C56.2265 32.2969 56.191 32.2568 56.1486 32.2249C56.1063 32.193 56.0579 32.17 56.0065 32.1572C55.955 32.1445 55.9015 32.1422 55.8492 32.1505C55.7968 32.1589 55.7467 32.1777 55.7018 32.2059L50.0281 35.4845C49.8669 35.5775 49.6754 35.6027 49.4956 35.5545C49.3158 35.5063 49.1626 35.3886 49.0695 35.2274C48.9765 35.0662 48.9513 34.8747 48.9995 34.6949C49.0477 34.5151 49.1654 34.3619 49.3266 34.2688L55.0013 30.9903C55.0482 30.9654 55.0895 30.9314 55.1229 30.8902C55.1563 30.849 55.181 30.8015 55.1956 30.7505C55.2102 30.6996 55.2144 30.6462 55.208 30.5936C55.2015 30.541 55.1845 30.4902 55.158 30.4443C55.1315 30.3984 55.096 30.3583 55.0536 30.3264C55.0112 30.2945 54.9629 30.2715 54.9114 30.2587C54.86 30.2459 54.8065 30.2437 54.7541 30.252C54.7018 30.2604 54.6516 30.2792 54.6067 30.3074L48.932 33.5859C48.7713 33.6732 48.5829 33.6943 48.4069 33.6446C48.2309 33.595 48.0812 33.4787 47.9897 33.3203C47.8983 33.162 47.8722 32.9742 47.9172 32.7969C47.9622 32.6197 48.0746 32.467 48.2304 32.3714L55.0024 28.4593C55.0523 28.4305 55.096 28.3921 55.1311 28.3464C55.1661 28.3008 55.1919 28.2486 55.2068 28.193C55.2217 28.1374 55.2255 28.0793 55.218 28.0222C55.2105 27.9652 55.1918 27.9101 55.163 27.8602C55.1342 27.8103 55.0959 27.7666 55.0502 27.7316C55.0045 27.6965 54.9524 27.6708 54.8967 27.6559C54.8411 27.6409 54.7831 27.6371 54.726 27.6446C54.6689 27.6522 54.6138 27.6708 54.564 27.6996L52.296 29.015C52.1449 29.1022 51.9652 29.1258 51.7967 29.0806C51.6281 29.0354 51.4844 28.925 51.3972 28.7739C51.31 28.6227 51.2864 28.4431 51.3316 28.2745C51.3768 28.1059 51.4872 27.9622 51.6383 27.875L58.2086 24.0802C59.2215 23.4937 62.3323 23.1484 64.2166 26.4138C66.1009 29.6793 64.4534 32.0075 63.1446 32.7671Z" fill="#953734"/>
<path d="M17.6689 32.7671L26.7899 38.0363C26.8697 38.0823 26.9578 38.1122 27.0492 38.1242C27.1406 38.1363 27.2334 38.1302 27.3224 38.1063C27.4114 38.0824 27.4949 38.0412 27.568 37.9851C27.6411 37.929 27.7024 37.8591 27.7485 37.7792C27.7945 37.6994 27.8244 37.6113 27.8364 37.5199C27.8485 37.4286 27.8424 37.3357 27.8185 37.2467C27.7946 37.1577 27.7534 37.0743 27.6973 37.0012C27.6412 36.928 27.5712 36.8667 27.4914 36.8207L23.2921 34.3949C23.2509 34.3725 23.2147 34.3422 23.1854 34.3056C23.1562 34.269 23.1346 34.2269 23.1219 34.1818C23.1092 34.1367 23.1056 34.0895 23.1114 34.0431C23.1172 33.9966 23.1323 33.9517 23.1557 33.9112C23.1792 33.8706 23.2105 33.8352 23.2478 33.8069C23.2852 33.7786 23.3278 33.7581 23.3732 33.7466C23.4186 33.7351 23.4659 33.7328 23.5122 33.7398C23.5585 33.7469 23.6029 33.7631 23.6429 33.7876L29.5818 37.2196C29.6566 37.2628 29.7393 37.2909 29.8249 37.3021C29.9106 37.3134 29.9977 37.3076 30.0811 37.2852C30.1646 37.2628 30.2428 37.2242 30.3114 37.1716C30.3799 37.119 30.4374 37.0534 30.4806 36.9785C30.5238 36.9036 30.5518 36.821 30.5631 36.7353C30.5743 36.6497 30.5686 36.5626 30.5462 36.4791C30.5238 36.3957 30.4852 36.3174 30.4326 36.2489C30.3799 36.1803 30.3143 36.1228 30.2395 36.0797L24.7171 32.8888C24.6322 32.8338 24.5717 32.7484 24.5479 32.6501C24.5242 32.5518 24.5392 32.4481 24.5896 32.3605C24.6401 32.2729 24.7223 32.208 24.8193 32.1792C24.9162 32.1505 25.0205 32.16 25.1106 32.2059L30.7853 35.4845C30.8652 35.5305 30.9533 35.5604 31.0446 35.5724C31.136 35.5844 31.2289 35.5783 31.3179 35.5545C31.4069 35.5306 31.4903 35.4894 31.5634 35.4333C31.6365 35.3772 31.6979 35.3072 31.7439 35.2274C31.79 35.1476 31.8199 35.0595 31.8319 34.9681C31.8439 34.8767 31.8378 34.7839 31.8139 34.6949C31.7901 34.6059 31.7489 34.5224 31.6928 34.4493C31.6367 34.3762 31.5667 34.3149 31.4869 34.2688L25.8121 30.9903C25.7653 30.9654 25.724 30.9314 25.6906 30.8902C25.6572 30.849 25.6325 30.8015 25.6178 30.7505C25.6032 30.6996 25.599 30.6462 25.6055 30.5936C25.6119 30.5409 25.629 30.4902 25.6555 30.4443C25.682 30.3984 25.7175 30.3583 25.7599 30.3264C25.8022 30.2945 25.8506 30.2715 25.902 30.2587C25.9535 30.2459 26.007 30.2437 26.0593 30.252C26.1117 30.2604 26.1618 30.2792 26.2067 30.3074L31.8804 33.5859C32.0416 33.679 32.2332 33.7041 32.4129 33.6559C32.5927 33.6077 32.7459 33.4901 32.839 33.3289C32.932 33.1677 32.9572 32.9761 32.909 32.7964C32.8608 32.6166 32.7431 32.4633 32.5819 32.3703L25.8099 28.4582C25.7601 28.4294 25.7163 28.391 25.6813 28.3454C25.6462 28.2997 25.6205 28.2475 25.6056 28.1919C25.5907 28.1363 25.5869 28.0782 25.5944 28.0212C25.6019 27.9641 25.6206 27.909 25.6494 27.8591C25.6781 27.8092 25.7165 27.7655 25.7622 27.7305C25.8078 27.6954 25.86 27.6697 25.9156 27.6548C25.9712 27.6398 26.0293 27.636 26.0864 27.6435C26.1435 27.6511 26.1985 27.6697 26.2484 27.6985L28.5163 29.0139C28.6675 29.1011 28.8471 29.1247 29.0157 29.0795C29.1843 29.0343 29.328 28.9239 29.4152 28.7728C29.5024 28.6216 29.526 28.442 29.4807 28.2734C29.4355 28.1048 29.3252 27.9611 29.174 27.8739L22.6048 24.0791C21.592 23.4926 18.48 23.1473 16.5957 26.4128C14.7115 29.6782 16.3568 32.0075 17.6689 32.7671Z" fill="#953734"/>
<path d="M10.4121 26.307L5.38471 23.9866L5.81563 23.053L10.843 25.3733L10.4121 26.307Z" fill="black"/>
<path d="M12.8572 21.6914L8.49282 18.3214L9.00795 17.6542L14.482 17.512L14.2269 17.8425L10.8663 15.2476L11.4873 14.4433L15.8517 17.8133L15.3366 18.4804L9.86252 18.6226L10.1177 18.2922L13.4783 20.8871L12.8572 21.6914Z" fill="black"/>
<path d="M18.8575 14.7624L15.5428 10.3427L17.4748 8.89372C17.9546 8.53384 18.445 8.31075 18.9459 8.22446C19.4468 8.13817 19.9214 8.18342 20.3697 8.36021C20.8179 8.53699 21.2094 8.84847 21.544 9.29465C21.8755 9.73661 22.0649 10.1996 22.1123 10.6837C22.1565 11.1635 22.067 11.6318 21.8439 12.0885C21.6208 12.5452 21.2694 12.9535 20.7895 13.3134L18.8575 14.7624ZM19.1574 13.4523L20.2308 12.6473C20.5633 12.3979 20.8022 12.1201 20.9474 11.8139C21.0968 11.5045 21.1515 11.1872 21.1115 10.862C21.0758 10.5337 20.9442 10.218 20.7169 9.91498C20.4865 9.60771 20.2202 9.39304 19.9182 9.27097C19.6173 9.14154 19.2974 9.10523 18.9585 9.16206C18.6239 9.21573 18.2903 9.36726 17.9578 9.61665L16.8844 10.4217L19.1574 13.4523Z" fill="black"/>
<path d="M26.7512 9.78216L24.5165 4.72973L25.4548 4.31472L27.6895 9.36714L26.7512 9.78216Z" fill="black"/>
<path d="M30.8871 8.08691L32.195 2.17161L33.184 1.96572L36.7515 6.86603L35.7007 7.08479L32.5918 2.64523L32.9936 2.56158L31.9224 7.87137L30.8871 8.08691ZM31.7468 6.60197L31.8532 5.75756L34.7738 5.14953L35.2083 5.88134L31.7468 6.60197Z" fill="black"/>
<path d="M39.9956 6.72572L40.3358 1.21162L41.1786 1.26362L44.3748 5.7228L43.9573 5.69704L44.2193 1.45119L45.2354 1.51388L44.8953 7.02797L44.0524 6.97597L40.8562 2.5168L41.2737 2.54255L41.0118 6.7884L39.9956 6.72572Z" fill="black"/>
<path d="M50.7008 8.54711C50.2911 8.41171 49.918 8.22464 49.5813 7.9859C49.2462 7.74216 48.9993 7.49155 48.8406 7.23405L49.428 6.58866C49.5833 6.82287 49.7977 7.04611 50.0711 7.25839C50.3445 7.47067 50.6436 7.63048 50.9683 7.7378C51.243 7.82862 51.4753 7.87212 51.6649 7.86832C51.8546 7.86451 52.0059 7.82586 52.1189 7.75236C52.2335 7.67387 52.3122 7.56968 52.3552 7.4398C52.408 7.27993 52.3927 7.13356 52.3091 7.00066C52.2272 6.86277 52.103 6.7358 51.9363 6.61975C51.7763 6.50036 51.5921 6.37854 51.3838 6.25427C51.1805 6.13166 50.9772 6.00074 50.7738 5.86149C50.5772 5.7189 50.4037 5.5646 50.2536 5.39859C50.11 5.22924 50.0106 5.03566 49.9551 4.81784C49.8996 4.60001 49.9181 4.35122 50.0106 4.07147C50.1047 3.78671 50.2655 3.5517 50.493 3.36644C50.7271 3.17784 51.0222 3.06478 51.3781 3.02728C51.7408 2.98643 52.1619 3.04526 52.6414 3.20377C52.9562 3.3078 53.2552 3.45097 53.5385 3.63327C53.8218 3.81558 54.0536 4.01964 54.2339 4.24547L53.6765 4.90077C53.4879 4.68328 53.2795 4.50079 53.0512 4.35328C52.8245 4.20078 52.5963 4.08655 52.3664 4.0106C52.0967 3.92143 51.8661 3.88125 51.6748 3.89006C51.4885 3.90051 51.338 3.94498 51.2234 4.02347C51.1138 4.10362 51.0367 4.21113 50.9921 4.34601C50.9393 4.50587 50.9513 4.65392 51.0282 4.79016C51.1117 4.92306 51.2343 5.04671 51.396 5.1611C51.5627 5.27715 51.7494 5.3998 51.956 5.52906C52.1643 5.65332 52.3676 5.78425 52.566 5.92184C52.7693 6.06109 52.9435 6.21289 53.0887 6.37724C53.2389 6.54325 53.3392 6.73434 53.3897 6.95051C53.4451 7.16833 53.4274 7.41462 53.3366 7.68939C53.2442 7.96914 53.0809 8.20333 52.8467 8.39193C52.6193 8.57719 52.3242 8.69025 51.9616 8.7311C51.6006 8.76695 51.1804 8.70562 50.7008 8.54711Z" fill="black"/>
<path d="M63.0456 11.8967L65.1369 13.6892L64.5719 14.3484L62.4806 12.5559L63.0456 11.8967ZM61.1701 14.2183L60.3911 13.5506L63.9863 9.35599L67.0484 11.9805L66.4886 12.6337L64.2055 10.6768L61.1701 14.2183Z" fill="black"/>
<path d="M67.3562 21.0648C67.1102 20.711 66.942 20.3448 66.8516 19.9661C66.7612 19.5875 66.743 19.2161 66.7971 18.8521C66.8556 18.4851 66.9831 18.1438 67.1795 17.828C67.3803 17.5093 67.649 17.233 67.9855 16.999C68.322 16.7651 68.6725 16.6111 69.0369 16.5369C69.4056 16.4598 69.77 16.4593 70.13 16.5354C70.4944 16.6085 70.8383 16.7534 71.1617 16.9701C71.4851 17.1868 71.7683 17.4699 72.0112 17.8194C72.2572 18.1731 72.4238 18.5372 72.5113 18.9116C72.6017 19.2902 72.6177 19.6631 72.5593 20.0301C72.5051 20.394 72.3777 20.7354 72.1769 21.0542C71.9804 21.3699 71.7139 21.6447 71.3774 21.8787C71.0409 22.1126 70.6883 22.2681 70.3195 22.3452C69.9508 22.4224 69.5864 22.4229 69.2264 22.3468C68.8663 22.2707 68.5246 22.1243 68.2012 21.9076C67.8807 21.6952 67.5991 21.4143 67.3562 21.0648ZM68.0894 20.5455C68.2484 20.7742 68.4342 20.9586 68.6468 21.0987C68.8594 21.2389 69.0864 21.3307 69.3277 21.3741C69.5734 21.4145 69.8181 21.4076 70.0619 21.3533C70.3131 21.3003 70.5551 21.1928 70.7881 21.0309C71.0211 20.8689 71.204 20.681 71.3368 20.4671C71.477 20.2544 71.5688 20.0275 71.6122 19.7861C71.6599 19.5418 71.6551 19.2955 71.5978 19.0474C71.5405 18.7993 71.4324 18.5609 71.2735 18.3322C71.1145 18.1035 70.9287 17.9191 70.7161 17.779C70.5065 17.6431 70.2774 17.5528 70.0287 17.5081C69.7874 17.4647 69.5411 17.4695 69.29 17.5225C69.0462 17.5768 68.8078 17.6849 68.5748 17.8468C68.3461 18.0058 68.1617 18.1916 68.0215 18.4042C67.8844 18.6211 67.7919 18.8517 67.7442 19.0961C67.7008 19.3374 67.7078 19.5822 67.765 19.8303C67.8223 20.0784 67.9305 20.3168 68.0894 20.5455Z" fill="black"/>
<path d="M70.7488 26.9528L75.9971 25.185L76.7245 27.3443C76.881 27.8091 76.9399 28.2318 76.9011 28.6122C76.8639 28.9976 76.7357 29.3274 76.5164 29.6016C76.2971 29.8759 75.995 30.0778 75.6101 30.2074C75.2253 30.3371 74.8626 30.3591 74.522 30.2734C74.1865 30.1861 73.8874 30.0002 73.6246 29.7158C73.3685 29.4348 73.1622 29.0618 73.0056 28.5969L72.4601 26.9775L73.049 27.2633L71.0771 27.9275L70.7488 26.9528ZM71.9054 30.3867L73.3628 28.4182L73.7139 29.4604L72.259 31.4364L71.9054 30.3867ZM72.944 27.2987L73.2624 26.7072L73.7927 28.2817C73.9375 28.7116 74.1386 29.0028 74.3959 29.1555C74.6549 29.3131 74.9494 29.3364 75.2793 29.2252C75.6142 29.1124 75.8346 28.9158 75.9404 28.6352C76.048 28.3597 76.0294 28.007 75.8846 27.5771L75.3542 26.0026L75.9805 26.2758L72.944 27.2987Z" fill="black"/>
<path d="M2.10675 44.039C2.06362 43.6203 2.09151 43.2233 2.19039 42.8482C2.29505 42.4777 2.45925 42.1461 2.68298 41.8533C2.91249 41.5652 3.19241 41.3301 3.52275 41.148C3.85309 40.9659 4.22238 40.8538 4.63062 40.8117C5.03886 40.7697 5.42324 40.8041 5.78376 40.9151C6.14429 41.0261 6.4639 41.2021 6.74262 41.4432C7.02656 41.6837 7.2549 41.9749 7.42764 42.3168C7.6056 42.6581 7.71642 43.0407 7.76008 43.4647C7.80643 43.9148 7.77024 44.3337 7.65149 44.7215C7.53798 45.1087 7.34265 45.4462 7.0655 45.7339L6.37738 45.1383C6.57148 44.9174 6.70821 44.6785 6.78755 44.4217C6.87213 44.1644 6.89959 43.8918 6.86994 43.604C6.8403 43.3161 6.76597 43.0566 6.64697 42.8256C6.52851 42.5998 6.37375 42.4068 6.18271 42.2466C5.99221 42.0917 5.77407 41.9766 5.52831 41.9014C5.28309 41.8315 5.01916 41.8111 4.73654 41.8402C4.45391 41.8693 4.19969 41.9431 3.97387 42.0615C3.74859 42.1852 3.55848 42.3423 3.40355 42.5328C3.24916 42.7286 3.13699 42.949 3.06704 43.1943C2.99763 43.4447 2.97774 43.7139 3.00739 44.0017C3.03703 44.2896 3.11686 44.5511 3.24687 44.7864C3.38212 45.021 3.56989 45.2265 3.81019 45.4027L3.25005 46.1269C2.92531 45.9011 2.6653 45.6106 2.47001 45.2551C2.27473 44.8997 2.15364 44.4943 2.10675 44.039Z" fill="black"/>
<path d="M3.86532 51.9037C3.72777 51.4948 3.66846 51.0957 3.68737 50.7063C3.70628 50.3169 3.79266 49.9548 3.94649 49.6199C4.1053 49.2834 4.32331 48.9908 4.6005 48.7421C4.88267 48.4918 5.21825 48.3012 5.60723 48.1704C5.99622 48.0395 6.37627 47.9894 6.74739 48.02C7.12349 48.049 7.47401 48.1503 7.79893 48.3242C8.12883 48.4963 8.41898 48.7318 8.66936 49.0306C8.91975 49.3294 9.11287 49.6808 9.24873 50.0847C9.38628 50.4937 9.44475 50.8903 9.42416 51.2747C9.40525 51.6641 9.31638 52.0271 9.15757 52.3636C9.00374 52.6985 8.78573 52.9911 8.50356 53.2414C8.22637 53.4901 7.89328 53.6798 7.5043 53.8106C7.11531 53.9415 6.73277 53.9924 6.35666 53.9635C5.98056 53.9346 5.63005 53.8332 5.30513 53.6594C4.98021 53.4855 4.69256 53.2492 4.44217 52.9504C4.19347 52.6566 4.00118 52.3077 3.86532 51.9037ZM4.71557 51.6094C4.80447 51.8738 4.93154 52.103 5.09679 52.2972C5.26203 52.4915 5.45462 52.6432 5.67454 52.7524C5.89945 52.8599 6.13671 52.9217 6.38633 52.9377C6.64262 52.9569 6.90541 52.9213 7.1747 52.8307C7.444 52.7401 7.67243 52.6106 7.85998 52.442C8.05421 52.2768 8.20593 52.0842 8.31514 51.8642C8.42935 51.6427 8.49359 51.4045 8.50788 51.1499C8.52217 50.8953 8.48486 50.6359 8.39596 50.3716C8.30706 50.1073 8.17999 49.878 8.01474 49.6838C7.85118 49.4945 7.6561 49.3437 7.42951 49.2311C7.20959 49.1219 6.97149 49.0577 6.7152 49.0384C6.46558 49.0224 6.20613 49.0597 5.93683 49.1503C5.67252 49.2392 5.44325 49.3663 5.24903 49.5315C5.05649 49.7018 4.90311 49.8977 4.78891 50.1193C4.67969 50.3392 4.61794 50.5765 4.60365 50.8311C4.58937 51.0857 4.62667 51.3451 4.71557 51.6094Z" fill="black"/>
<path d="M6.4418 57.7425L11.1929 54.9249L11.7162 55.8073L7.71167 58.1821L9.18483 60.6662L8.43823 61.109L6.4418 57.7425Z" fill="black"/>
<path d="M10.0914 63.334L14.2955 59.7498L14.9611 60.5305L11.4177 63.5515L13.2918 65.7496L12.6311 66.3129L10.0914 63.334Z" fill="black"/>
<path d="M17.4948 66.3468L19.6371 68.0771L19.1051 68.7358L16.9628 67.0055L17.4948 66.3468ZM16.0648 68.2433L18.4964 70.2073L17.9544 70.8783L14.7225 68.268L18.203 63.9588L21.3487 66.4995L20.8067 67.1705L18.4613 65.2762L16.0648 68.2433Z" fill="black"/>
<path d="M23.016 74.0086C22.6427 73.814 22.3267 73.5722 22.068 73.2831C21.8164 72.9917 21.63 72.6721 21.5088 72.3241C21.3947 71.9739 21.3525 71.6107 21.3824 71.2347C21.4123 70.8587 21.522 70.4887 21.7117 70.1248C21.9014 69.7608 22.1418 69.4589 22.433 69.2191C22.7241 68.9793 23.0471 68.8094 23.4017 68.7094C23.7589 68.6049 24.1277 68.5746 24.5082 68.6187C24.8911 68.658 25.2715 68.7762 25.6494 68.9732C26.0507 69.1824 26.3805 69.4433 26.6388 69.7559C26.8995 70.0639 27.0737 70.4128 27.1613 70.8025L26.2852 71.049C26.2076 70.7653 26.0835 70.5196 25.9128 70.312C25.7446 70.0997 25.5322 69.9267 25.2756 69.793C25.019 69.6592 24.7615 69.5784 24.5031 69.5505C24.2493 69.525 24.003 69.548 23.7641 69.6192C23.5299 69.693 23.3137 69.8117 23.1157 69.9754C22.9222 70.1416 22.7599 70.3507 22.6285 70.6026C22.4972 70.8546 22.4188 71.1074 22.3934 71.3612C22.3726 71.6173 22.3991 71.8625 22.4728 72.0967C22.5512 72.3334 22.6734 72.5484 22.8396 72.7419C23.0105 72.9377 23.2242 73.1025 23.4808 73.2363C23.7374 73.37 23.9997 73.4474 24.2676 73.4684C24.538 73.4847 24.8129 73.4411 25.0923 73.3375L25.3884 74.2039C25.0211 74.3506 24.6354 74.4077 24.2312 74.375C23.827 74.3423 23.4219 74.2201 23.016 74.0086Z" fill="black"/>
<path d="M28.9127 76.3181L30.2555 71.8595L28.5023 71.3315L28.7526 70.5003L33.2414 71.8521L32.9911 72.6834L31.2379 72.1554L29.8951 76.614L28.9127 76.3181Z" fill="black"/>
<path d="M33.8629 77.4899L34.7468 72.0206L35.7626 72.1848L34.8786 77.6541L33.8629 77.4899Z" fill="black"/>
<path d="M39.5492 78.0622L37.2447 72.4894L38.3575 72.5116L40.4122 77.5505L39.7729 77.5377L42.0511 72.5855L43.0771 72.606L40.5595 78.0824L39.5492 78.0622Z" fill="black"/>
<path d="M45.8862 74.4666L48.5778 73.9723L48.7298 74.7999L46.0382 75.2942L45.8862 74.4666ZM46.3897 76.7728L49.4448 76.2116L49.5997 77.0547L45.5391 77.8005L44.5447 72.3864L48.497 71.6605L48.6518 72.5035L45.705 73.0448L46.3897 76.7728Z" fill="black"/>
<path d="M55.3238 75.2025L55.0503 69.1669L55.9494 68.7123L60.6551 72.5069L59.6998 72.9899L55.5553 69.5202L55.9205 69.3355L56.265 74.7266L55.3238 75.2025ZM55.767 73.5496L55.6506 72.7089L58.3057 71.3664L58.9138 71.9585L55.767 73.5496Z" fill="black"/>
<path d="M64.9057 69.3634C64.5776 69.6271 64.2292 69.8193 63.8605 69.9401C63.4926 70.0535 63.125 70.0959 62.7577 70.0671C62.3911 70.031 62.0416 69.9237 61.7092 69.7453C61.3769 69.567 61.0821 69.3178 60.825 68.9979C60.5679 68.6781 60.388 68.3366 60.2853 67.9737C60.1826 67.6107 60.1567 67.2468 60.2076 66.8818C60.2553 66.5127 60.3757 66.1628 60.5689 65.8321C60.7587 65.4972 61.0198 65.1963 61.352 64.9293C61.7046 64.6458 62.076 64.4486 62.4661 64.3376C62.8528 64.2225 63.2423 64.2031 63.6344 64.2795L63.5083 65.1808C63.2173 65.1379 62.9425 65.1529 62.6838 65.2258C62.4218 65.2946 62.1781 65.4196 61.9525 65.6009C61.7269 65.7822 61.5495 65.9855 61.4202 66.211C61.295 66.4331 61.217 66.6679 61.1864 66.9153C61.1598 67.1594 61.1817 67.4051 61.2521 67.6522C61.3266 67.8961 61.4529 68.1288 61.6309 68.3502C61.8089 68.5717 62.009 68.745 62.2311 68.8703C62.4573 68.9922 62.6925 69.0664 62.9366 69.093C63.1848 69.1162 63.4309 69.0906 63.6748 69.0161C63.9227 68.9383 64.1595 68.8088 64.3851 68.6275C64.6106 68.4462 64.7868 68.2371 64.9136 68.0001C65.0372 67.7591 65.1076 67.4898 65.125 67.1923L66.0373 67.2691C66.0242 67.6644 65.9216 68.0406 65.7293 68.3976C65.537 68.7547 65.2624 69.0766 64.9057 69.3634Z" fill="black"/>
<path d="M69.3783 64.9096L65.8412 61.8812L64.6503 63.272L63.9909 62.7074L67.0399 59.1463L67.6993 59.711L66.5085 61.1018L70.0455 64.1303L69.3783 64.9096Z" fill="black"/>
<path d="M72.467 60.8844L67.8263 57.9012L68.3804 57.0393L73.021 60.0226L72.467 60.8844Z" fill="black"/>
<path d="M75.8454 54.7909C75.675 55.1872 75.4528 55.5241 75.1789 55.8015C74.9049 56.0789 74.599 56.2909 74.261 56.4377C73.9181 56.5823 73.5605 56.6548 73.1881 56.655C72.8109 56.6531 72.4338 56.5711 72.0568 56.409C71.6798 56.2469 71.3633 56.0306 71.1073 55.7601C70.8465 55.4876 70.6531 55.1782 70.5271 54.8319C70.3963 54.4836 70.3373 54.1146 70.3502 53.7249C70.3631 53.3353 70.4538 52.9447 70.6222 52.5532C70.7926 52.1569 71.0137 51.8224 71.2856 51.5499C71.5595 51.2725 71.8679 51.0614 72.2108 50.9168C72.5488 50.7701 72.9064 50.6976 73.2836 50.6995C73.656 50.6992 74.0307 50.7802 74.4077 50.9423C74.7847 51.1045 75.1036 51.3218 75.3644 51.5943C75.6252 51.8668 75.8187 52.1762 75.9446 52.5225C76.0706 52.8688 76.1272 53.2368 76.1143 53.6264C76.1034 54.0112 76.0138 54.3994 75.8454 54.7909ZM75.0158 54.4427C75.126 54.1865 75.1843 53.931 75.1909 53.676C75.1974 53.4211 75.1552 53.1796 75.0643 52.9515C74.9685 52.7213 74.833 52.517 74.6578 52.3385C74.4798 52.1532 74.2603 52.0044 73.9993 51.8921C73.7382 51.7799 73.4817 51.7239 73.2295 51.7243C72.9746 51.7178 72.7331 51.76 72.505 51.8509C72.272 51.9397 72.0653 52.0742 71.8847 52.2542C71.7042 52.4343 71.5588 52.6525 71.4487 52.9087C71.3385 53.1648 71.2802 53.4204 71.2736 53.6753C71.2692 53.9254 71.3138 54.1679 71.4074 54.4029C71.4983 54.631 71.6328 54.8378 71.8108 55.0232C71.9861 55.2016 72.2042 55.347 72.4652 55.4592C72.7214 55.5694 72.9769 55.6277 73.2319 55.6343C73.4889 55.636 73.7338 55.5924 73.9668 55.5036C74.1949 55.4127 74.3992 55.2772 74.5797 55.0971C74.7603 54.917 74.9056 54.6989 75.0158 54.4427Z" fill="black"/>
<path d="M77.8999 48.4553L72.4306 47.5161L72.5741 46.68L77.3745 43.9732L77.3034 44.3873L73.092 43.6641L73.2651 42.6562L78.7344 43.5954L78.5909 44.4314L73.7905 47.1383L73.8616 46.7242L78.073 47.4473L77.8999 48.4553Z" fill="black"/>
</g>
<defs>
<clipPath id="clip0_236_425">
<rect width="80" height="80" fill="white"/>
</clipPath>
</defs>
</svg>
