<svg xmlns="http://www.w3.org/2000/svg" viewBox="0 0 245.056 66.04"><path d="M0 0c-3.93-1.405-5.283-5.211-5.283-5.211-.529-1.404-1.934-2.459-3.518-2.459h-7.453c-2.053 0-3.754 1.7-3.754 3.747 0 2.051 1.407 3.689 3.754 3.689l5.911-.01-8.553 8.556a3.707 3.707 0 0 0 0 5.265 3.728 3.728 0 0 0 5.281 0l8.508-8.472v5.84a3.737 3.737 0 0 0 3.755 3.742c2.057 0 3.7-1.695 3.7-3.742V3.512C2.348 1.932 1.408.466 0 0m-1.352-31.491c-2.051 0-3.697 1.351-3.637 3.689l.011 5.934-8.578-8.565c-1.464-1.467-3.871-1.467-5.28 0-1.465 1.459-1.465 3.86 0 5.262l8.485 8.493h-5.844a3.735 3.735 0 0 0-3.753 3.74 3.738 3.738 0 0 0 3.753 3.748h7.451c1.583 0 2.992-.935 3.522-2.342 1.35-3.976 5.16-5.322 5.16-5.322a3.68 3.68 0 0 0 2.468-3.512v-7.436c0-2.049-1.646-3.689-3.758-3.689m23.994 14.869-5.923.006 8.561-8.555a3.696 3.696 0 0 0 0-5.262 3.716 3.716 0 0 0-5.279 0l-8.507 8.486v-5.855c0-2.227-1.703-3.748-3.755-3.748-2.055 0-3.757 1.699-3.757 3.748v7.436c0 1.581.998 3.044 2.408 3.512 3.929 1.346 5.278 5.206 5.278 5.206.528 1.402 1.937 2.458 3.521 2.458h7.453c2.055 0 3.754-1.698 3.754-3.748 0-2.044-1.525-3.684-3.754-3.684m.059 9.012h-7.453c-1.583 0-3.052.937-3.52 2.341C10.377-1.347 6.507.059 6.507.059 5.098.587 4.041 1.932 4.041 3.572v7.432c0 2.047 1.701 3.683 3.757 3.683 2.053 0 3.696-1.52 3.696-3.683l.002-5.956 8.563 8.587a3.728 3.728 0 0 0 5.281 0c1.467-1.458 1.467-3.858 0-5.323L16.892-.116h5.809c2.052 0 3.753-1.698 3.753-3.747S24.753-7.61 22.701-7.61" style="fill:#15366f;fill-opacity:1;fill-rule:nonzero;stroke:none" transform="matrix(1.41111 0 0 -1.41111 28.234 21.481)"/><path d="M0 0h.284l4.695-7.5h4.154L5.082-1.419A43.177 43.177 0 0 1 3.687.571C6.112.985 7.97 2.931 7.97 5.512c0 3.561-2.477 5.282-6.319 5.282-2.015 0-3.639-.025-5.008-.103V-7.5H0Zm0 7.982c.334.054.825.077 1.315.077 2.114 0 3.146-1.208 3.146-2.882 0-1.625-1.239-2.747-3.25-2.747-.515 0-.979.024-1.211.05Z" style="fill:#15366f;fill-opacity:1;fill-rule:nonzero;stroke:none" transform="matrix(1.41111 0 0 -1.41111 85.03 15.993)"/><path d="M0 0c-3.895 0-6.554-2.887-6.554-6.888 0-4.565 2.376-6.447 6.011-6.447 3.821 0 6.556 2.888 6.556 6.913C6.013-2.01 3.665 0 0 0m-.283-10.525c-1.884 0-2.863 1.339-2.863 3.974 0 2.629 1.445 3.767 2.916 3.767 1.933 0 2.837-1.341 2.837-3.821 0-2.605-1.264-3.92-2.89-3.92" style="fill:#15366f;fill-opacity:1;fill-rule:nonzero;stroke:none" transform="matrix(1.41111 0 0 -1.41111 107.69 8.12)"/><path d="m0 0 5.082 13.545H1.547L.026 9.184C-.387 8-.93 6.269-1.213 5.109h-.027a50.047 50.047 0 0 1-1.005 3.534l-1.729 4.902h-3.691L-2.918.723-3.33-.413c-.697-2.01-1.83-2.526-2.914-2.526a5.58 5.58 0 0 0-1.624.258l-.388-2.839c.49-.104 1.263-.181 1.806-.181C-3.484-5.701-1.676-4.437 0 0" style="fill:#15366f;fill-opacity:1;fill-rule:nonzero;stroke:none" transform="matrix(1.41111 0 0 -1.41111 128.099 27.598)"/><path d="M0 0c1.817 0 3.322.915 3.996 2.252V.256h3.148a48.361 48.361 0 0 0-.103 3.3v5.291c0 2.864-1.185 4.515-5.157 4.515-1.733 0-3.563-.363-4.852-.879l.54-2.527c1.134.492 2.71.877 3.871.877 1.703 0 2.294-.695 2.294-2.247v-.462c-4.488 0-7.403-1.418-7.403-4.464C-3.666 1.57-2.322 0 0 0m3.737 5.957v-.338c0-1.546-1.08-3.092-2.681-3.092-.957 0-1.547.673-1.547 1.496 0 1.107.902 1.934 4.228 1.934" style="fill:#15366f;fill-opacity:1;fill-rule:nonzero;stroke:none" transform="matrix(1.41111 0 0 -1.41111 141.383 26.938)"/><path d="M103.048 173.085h-1.166v6.644h1.166z" style="fill:#15366f;fill-opacity:1;fill-rule:nonzero;stroke:none;stroke-width:.35277778" transform="matrix(4 0 0 4 -252.425 -692.337)"/><path d="M0 0c0 1.936-1.264 3.588-3.121 3.978v.052C-1.446 4.7-.49 6.287-.49 8.016c0 2.785-2.09 4.392-5.83 4.392-2.117 0-4.308-.054-5.779-.128V-5.784c2.193 0 3.92-.05 5.083-.05C-1.912-5.834 0-2.685 0 0m-8.746 9.674a39.37 39.37 0 0 0 1.883.051c2.038 0 2.813-.96 2.813-2.249 0-1.549-1.034-2.57-3.33-2.57-.539 0-.953 0-1.366.028zm0-7.295c.362.025 1.237.025 1.471.025 2.297 0 3.69-.856 3.69-2.508 0-1.522-1.111-3.023-3.304-3.023-.62 0-1.444.053-1.857.079z" style="fill:#15366f;fill-opacity:1;fill-rule:nonzero;stroke:none" transform="matrix(1.41111 0 0 -1.41111 187.988 18.416)"/><path d="M0 0c0-2.09 1.342-3.66 3.667-3.66 1.817 0 3.323.915 3.996 2.254v-1.998h3.148a47.15 47.15 0 0 0-.102 3.301v5.29c0 2.864-1.187 4.515-5.161 4.515-1.728 0-3.56-.362-4.853-.879l.543-2.527c1.137.493 2.709.877 3.869.877 1.705 0 2.299-.695 2.299-2.246v-.463C2.918 4.464 0 3.046 0 0m7.406 1.959c0-1.546-1.084-3.091-2.683-3.091-.955 0-1.548.672-1.548 1.495 0 1.108.9 1.934 4.231 1.934z" style="fill:#15366f;fill-opacity:1;fill-rule:nonzero;stroke:none" transform="matrix(1.41111 0 0 -1.41111 190.706 21.774)"/><path d="M0 0c0 2.247 1.314 4.128 2.967 4.128 1.238 0 1.598-.799 1.598-2.116v-8.203h3.276v9.005c0 2.245-.927 4.074-3.819 4.074-1.963 0-3.394-.94-4.204-2.297V6.63h-3.121V-6.191H0Z" style="fill:#15366f;fill-opacity:1;fill-rule:nonzero;stroke:none" transform="matrix(1.41111 0 0 -1.41111 214.275 17.84)"/><path d="m121.513 177.638 1.401 2.09h1.456l-1.789-2.457 1.672-2.065h-1.42l-1.32 1.661v-3.783h-1.165v6.645h1.165z" style="fill:#15366f;fill-opacity:1;fill-rule:nonzero;stroke:none;stroke-width:.35277778" transform="matrix(4 0 0 4 -252.425 -692.337)"/><path d="M0 0c-3.895 0-6.552-2.891-6.552-6.891 0-4.567 2.375-6.448 6.011-6.448 3.817 0 6.553 2.89 6.553 6.913C6.012-2.015 3.664 0 0 0m-.282-10.529c-1.884 0-2.866 1.344-2.866 3.972 0 2.634 1.445 3.77 2.917 3.77 1.935 0 2.839-1.342 2.839-3.82 0-2.604-1.265-3.922-2.89-3.922" style="fill:#15366f;fill-opacity:1;fill-rule:nonzero;stroke:none" transform="matrix(1.41111 0 0 -1.41111 88.193 47.144)"/><path d="M0 0v-1.056h-2.247v-2.556H0V-13.88h3.275v10.268H6.27v2.556H3.275V.027c0 1.701.644 2.451 2.091 2.451.486 0 1.083-.052 1.599-.233l.232 2.709c-.673.154-1.394.209-2.09.209C1.599 5.163 0 3.458 0 0" style="fill:#15366f;fill-opacity:1;fill-rule:nonzero;stroke:none" transform="matrix(1.41111 0 0 -1.41111 101.429 46.072)"/><path d="M0 0c0 1.236.902 2.088 2.862 2.088 1.032 0 2.039-.18 2.995-.489l.308 2.943c-.979.205-2.194.331-3.146.331-4.207 0-6.581-2.14-6.581-5.235 0-5.729 7.326-4.694 7.326-8.021 0-1.628-1.34-2.273-2.915-2.273a9.851 9.851 0 0 0-3.792.751l-.36-3.224c1.16-.312 2.477-.467 4.024-.467 4.025 0 6.735 2.401 6.735 5.625C7.456-2.451 0-3.097 0 0" style="fill:#15366f;fill-opacity:1;fill-rule:nonzero;stroke:none" transform="matrix(1.41111 0 0 -1.41111 123.257 46.82)"/><path d="M0 0c-2.193 0-2.99 1.523-2.99 3.715 0 2.377 1.004 3.95 2.964 3.95a6.52 6.52 0 0 0 2.4-.489l.515 2.836c-.825.286-1.832.439-2.811.439-4.438 0-6.529-3.068-6.529-7.068 0-4.362 2.221-6.22 5.779-6.22 1.241 0 2.608.209 3.614.593L2.502.52A6.153 6.153 0 0 0 0 0" style="fill:#15366f;fill-opacity:1;fill-rule:nonzero;stroke:none" transform="matrix(1.41111 0 0 -1.41111 144.832 61.93)"/><path d="M0 0c-3.894 0-6.554-2.891-6.554-6.891 0-4.567 2.375-6.448 6.012-6.448 3.82 0 6.555 2.89 6.555 6.913C6.013-2.015 3.663 0 0 0m-.283-10.529c-1.885 0-2.865 1.344-2.865 3.972 0 2.634 1.443 3.77 2.917 3.77 1.934 0 2.837-1.342 2.837-3.82 0-2.604-1.263-3.922-2.889-3.922" style="fill:#15366f;fill-opacity:1;fill-rule:nonzero;stroke:none" transform="matrix(1.41111 0 0 -1.41111 159.26 47.144)"/><path d="M0 0c-1.136 0-1.52.465-1.52 2.117V7.74h3.121v2.556H-1.52v5.371l-3.278-.876v-4.495h-2.219V7.74h2.219v-6.5c0-2.994.878-4.026 3.714-4.026.903 0 1.963.153 2.789.362L1.471.181C1.033.052.544 0 0 0" style="fill:#15366f;fill-opacity:1;fill-rule:nonzero;stroke:none" transform="matrix(1.41111 0 0 -1.41111 179.203 62.036)"/><path d="M109.248 189.499h1.165v-6.645h-1.165z" style="fill:#15366f;fill-opacity:1;fill-rule:nonzero;stroke:none;stroke-width:.35277778" transform="matrix(4 0 0 4 -252.425 -692.337)"/><path d="M0 0c0 2.862-1.185 4.513-5.16 4.513-1.726 0-3.559-.361-4.848-.878l.54-2.526c1.138.488 2.709.875 3.87.875 1.705 0 2.296-.694 2.296-2.244v-.464c-4.489 0-7.403-1.421-7.403-4.463 0-2.092 1.342-3.664 3.662-3.664 1.823 0 3.331.922 4 2.26v-2.003H.106A47.214 47.214 0 0 0 0-5.293Zm-3.302-3.226c0-1.55-1.082-3.098-2.68-3.098-.955 0-1.549.673-1.549 1.499 0 1.108.902 1.934 4.229 1.934z" style="fill:#15366f;fill-opacity:1;fill-rule:nonzero;stroke:none" transform="matrix(1.41111 0 0 -1.41111 207.03 53.524)"/><path d="M0 0c-1.965 0-3.398-.944-4.206-2.3v2.042h-3.121v-12.824h3.303v6.191c0 2.246 1.315 4.13 2.965 4.13C.18-2.761.542-3.56.542-4.875v-8.207H3.82v9.005C3.82-1.832 2.89 0 0 0" style="fill:#15366f;fill-opacity:1;fill-rule:nonzero;stroke:none" transform="matrix(1.41111 0 0 -1.41111 220.479 47.198)"/><path d="M0 0v-5.885c-.567.079-1.082.102-1.625.102-4.259 0-6.787-2.99-6.787-7.327 0-3.663 1.55-6.01 4.671-6.01 1.871 0 3.242.919 3.946 2.238v-1.955h3.072V0Zm0-12.182c0-2.191-1.034-4.205-2.762-4.205-1.496 0-2.191 1.241-2.191 3.639 0 3.175 1.34 4.36 3.224 4.36.566 0 1.137-.077 1.729-.207z" style="fill:#15366f;fill-opacity:1;fill-rule:nonzero;stroke:none" transform="matrix(1.41111 0 0 -1.41111 240.431 39.06)"/></svg>