<?xml version="1.0" encoding="UTF-8"?>
<svg version="1.1" xmlns="http://www.w3.org/2000/svg" width="72" height="72">
<path d="M0 0 C6.63870954 3.20958083 12.3703171 7.92685974 18.0625 12.5625 C18.90300903 13.23212769 18.90300903 13.23212769 19.76049805 13.9152832 C23.43193096 17.01180169 25.10707882 19.28645849 26 24 C26.26585724 27.96324914 26.27901987 31.90411408 26.25 35.875 C26.26160156 37.45087891 26.26160156 37.45087891 26.2734375 39.05859375 C26.23778145 53.30318646 26.23778145 53.30318646 21.5625 58.9375 C17.06422235 62.55806494 12.68991313 62.17520883 7.16796875 62.203125 C5.86391838 62.21167511 5.86391838 62.21167511 4.53352356 62.22039795 C2.69350398 62.22984278 0.85346752 62.23637988 -0.98657227 62.24023438 C-3.79148144 62.24992737 -6.59565379 62.2809501 -9.40039062 62.3125 C-11.19009983 62.31903168 -12.97981426 62.3242815 -14.76953125 62.328125 C-16.02138969 62.3466452 -16.02138969 62.3466452 -17.29853821 62.36553955 C-22.27653415 62.34664544 -25.68937638 61.76669923 -30 59 C-35.02290464 52.41826289 -34.21361269 44.52104621 -34.25 36.625 C-34.270625 35.51382813 -34.29125 34.40265625 -34.3125 33.2578125 C-34.34961982 25.46265119 -34.08492167 20.19917803 -28.46875 14.375 C-25.34152171 11.87321736 -22.21455952 9.38856932 -19 7 C-18.02546875 6.27554687 -17.0509375 5.55109375 -16.046875 4.8046875 C-6.1925848 -1.99422222 -6.1925848 -1.99422222 0 0 Z " fill="#FFFFFF" transform="translate(40,5)"/>
</svg>
