<svg width="72" height="72" version="1.1" xmlns="http://www.w3.org/2000/svg" desc="Created with imagetracer.js version 1.2.6" ><path fill="rgb(255,255,255)" stroke="rgb(255,255,255)" stroke-width="1" opacity="0.09019607843137255" d="M 25.5 6 L 28 6.5 L 25.5 7 L 25.5 6 Z " /><path fill="rgb(255,255,255)" stroke="rgb(255,255,255)" stroke-width="1" opacity="0.09019607843137255" d="M 22.5 7 L 24 7.5 L 19.5 10 L 20.5 8 L 22.5 7 Z " /><path fill="rgb(255,255,255)" stroke="rgb(255,255,255)" stroke-width="1" opacity="0.09019607843137255" d="M 42.5 7 L 47 9.5 L 45.5 9 Q 41.7 8.8 42.5 7 Z " /><path fill="rgb(255,255,255)" stroke="rgb(255,255,255)" stroke-width="1" opacity="0.09019607843137255" d="M 17.5 10 L 16.5 12 L 17.5 10 Z " /><path fill="rgb(255,255,255)" stroke="rgb(255,255,255)" stroke-width="1" opacity="0.09019607843137255" d="M 48.5 10 L 49.5 12 L 48.5 10 Z " /><path fill="rgb(255,255,255)" stroke="rgb(255,255,255)" stroke-width="1" opacity="0.09019607843137255" d="M 28.5 12 L 38 12.5 L 28.5 13 L 28.5 12 Z " /><path fill="rgb(255,255,255)" stroke="rgb(255,255,255)" stroke-width="1" opacity="0.09019607843137255" d="M 23.5 14 L 22.5 16 L 16 21.5 L 14.5 24 L 15 22.5 L 21.5 15 L 23.5 14 Z " /><path fill="rgb(255,255,255)" stroke="rgb(255,255,255)" stroke-width="1" opacity="0.09019607843137255" d="M 42.5 14 L 51 21.5 L 52 23.5 L 50 22.5 L 44.5 16 L 42.5 14 Z " /><path fill="rgb(255,255,255)" stroke="rgb(255,255,255)" stroke-width="1" opacity="0.09019607843137255" d="M 11.5 16 L 10.5 18 L 11.5 16 Z " /><path fill="rgb(255,255,255)" stroke="rgb(255,255,255)" stroke-width="1" opacity="0.09019607843137255" d="M 54.5 16 L 55.5 18 L 54.5 16 Z " /><path fill="rgb(255,255,255)" stroke="rgb(255,255,255)" stroke-width="1" opacity="0.09019607843137255" d="M 9.5 19 L 9 20.5 L 7.5 24 L 7 22.5 L 9.5 19 Z " /><path fill="rgb(255,255,255)" stroke="rgb(255,255,255)" stroke-width="1" opacity="0.09019607843137255" d="M 56.5 19 L 58 21.5 L 57 21.5 L 56.5 19 Z " /><path fill="rgb(255,255,255)" stroke="rgb(255,255,255)" stroke-width="1" opacity="0.09019607843137255" d="M 12.5 28 L 13 37.5 L 12 37.5 L 12.5 28 Z " /><path fill="rgb(255,255,255)" stroke="rgb(255,255,255)" stroke-width="1" opacity="0.09019607843137255" d="M 53.5 28 L 54 37.5 L 53 37.5 L 53.5 28 Z " /><path fill="rgb(255,255,255)" stroke="rgb(255,255,255)" stroke-width="1" opacity="0.09019607843137255" d="M 7.5 42 L 10 46.5 L 8 45.5 L 7.5 42 Z " /><path fill="rgb(255,255,255)" stroke="rgb(255,255,255)" stroke-width="1" opacity="0.09019607843137255" d="M 14.5 42 L 21.5 50 L 24 51.5 L 22.5 51 L 15 44.5 L 14.5 42 Z " /><path fill="rgb(255,255,255)" stroke="rgb(255,255,255)" stroke-width="1" opacity="0.09019607843137255" d="M 51.5 42 L 51 43.5 L 44.5 51 L 42.5 52 L 43.5 50 L 50 44.5 L 51.5 42 Z " /><path fill="rgb(255,255,255)" stroke="rgb(255,255,255)" stroke-width="1" opacity="0.09019607843137255" d="M 57.5 44 L 58 45.5 L 56 46.5 L 57.5 44 Z " /><path fill="rgb(255,255,255)" stroke="rgb(255,255,255)" stroke-width="1" opacity="0.09019607843137255" d="M 10.5 48 L 11.5 50 L 10.5 48 Z " /><path fill="rgb(255,255,255)" stroke="rgb(255,255,255)" stroke-width="1" opacity="0.09019607843137255" d="M 55.5 48 L 55 49.5 L 65.5 61 L 54 49.5 L 55.5 48 Z " /><path fill="rgb(255,255,255)" stroke="rgb(255,255,255)" stroke-width="1" opacity="0.09019607843137255" d="M 28.5 53 L 38 53.5 L 28.5 54 L 28.5 53 Z " /><path fill="rgb(255,255,255)" stroke="rgb(255,255,255)" stroke-width="1" opacity="0.09019607843137255" d="M 16.5 54 L 17.5 56 L 16.5 54 Z " /><path fill="rgb(255,255,255)" stroke="rgb(255,255,255)" stroke-width="1" opacity="0.09019607843137255" d="M 49.5 54 L 60.5 66 L 49.5 55 L 48 55.5 L 49.5 54 Z " /><path fill="rgb(255,255,255)" stroke="rgb(255,255,255)" stroke-width="1" opacity="0.09019607843137255" d="M 19.5 56 L 22 57.5 L 20.5 58 L 19.5 56 Z " /><path fill="rgb(255,255,255)" stroke="rgb(255,255,255)" stroke-width="1" opacity="0.09019607843137255" d="M 46.5 56 L 45.5 58 L 44 57.5 L 46.5 56 Z " /><path fill="rgb(0,0,0)" stroke="rgb(0,0,0)" stroke-width="1" opacity="0" d="M 0 0 L 72 0 L 72 72 L 0 72 L 0 0 Z M 26 6 L 13 13 L 8 21 L 6 27 Q 5 37 7 44 L 13 53 L 21 58 L 27 60 Q 43 62 50 55 L 61 66 L 66 66 L 66 61 L 55 50 L 60 40 L 60 27 L 58 21 L 53 13 L 44 7 Q 36 5 26 6 Z " /><path fill="rgb(0,0,0)" stroke="rgb(0,0,0)" stroke-width="1" opacity="0" d="M 27.5 13 Q 36.4 11.6 41.5 14 L 50 21.5 Q 54.8 26.7 53 38.5 Q 50.4 45.9 44.5 50 Q 39.3 54.8 27.5 53 Q 20.1 50.4 16 44.5 Q 11.2 39.3 13 27.5 Q 15.6 20.1 21.5 16 L 27.5 13 Z " /><path fill="rgb(255,255,255)" stroke="rgb(255,255,255)" stroke-width="1" opacity="0.4" d="M 31.5 6 L 40.5 7 Q 49.8 10.2 55 17.5 L 59 25.5 L 60 34.5 Q 57.7 35.8 59 40.5 L 54 50.5 L 50.5 54 L 40.5 59 L 31.5 60 Q 30.2 57.7 25.5 59 L 17.5 55 L 11 48.5 L 7 40.5 L 6 31.5 L 9 20.5 L 17.5 11 L 25.5 7 Q 30.2 8.3 31.5 6 Z M 28 12 L 20 16 Q 14 20 12 28 Q 10 41 16 47 Q 20 52 28 54 Q 41 56 47 50 Q 52 46 54 39 Q 56 25 50 20 Q 46 14 39 12 L 28 12 Z " /><path fill="rgb(255,255,255)" stroke="rgb(255,255,255)" stroke-width="1" opacity="0.4" d="M 65.5 64 L 64.5 66 L 65.5 64 Z " /><path fill="rgb(255,255,255)" stroke="rgb(255,255,255)" stroke-width="1" opacity="0.3215686274509804" d="M 28.5 6 L 31 6.5 L 28.5 7 L 28.5 6 Z " /><path fill="rgb(255,255,255)" stroke="rgb(255,255,255)" stroke-width="1" opacity="0.3215686274509804" d="M 35.5 6 L 38 6.5 L 35.5 7 L 35.5 6 Z " /><path fill="rgb(255,255,255)" stroke="rgb(255,255,255)" stroke-width="1" opacity="0.3215686274509804" d="M 15.5 12 L 12.5 16 L 15.5 12 Z " /><path fill="rgb(255,255,255)" stroke="rgb(255,255,255)" stroke-width="1" opacity="0.3215686274509804" d="M 50.5 12 L 53.5 16 L 50.5 12 Z " /><path fill="rgb(255,255,255)" stroke="rgb(255,255,255)" stroke-width="1" opacity="0.3215686274509804" d="M 19.5 16 L 16.5 20 L 19.5 16 Z " /><path fill="rgb(255,255,255)" stroke="rgb(255,255,255)" stroke-width="1" opacity="0.3215686274509804" d="M 46.5 16 L 49.5 20 L 46.5 16 Z " /><path fill="rgb(255,255,255)" stroke="rgb(255,255,255)" stroke-width="1" opacity="0.3215686274509804" d="M 6.5 28 L 7 30.5 L 6 30.5 L 6.5 28 Z " /><path fill="rgb(255,255,255)" stroke="rgb(255,255,255)" stroke-width="1" opacity="0.3215686274509804" d="M 59.5 28 L 60 30.5 L 59 30.5 L 59.5 28 Z " /><path fill="rgb(255,255,255)" stroke="rgb(255,255,255)" stroke-width="1" opacity="0.3215686274509804" d="M 6.5 35 L 7 37.5 L 6 37.5 L 6.5 35 Z " /><path fill="rgb(255,255,255)" stroke="rgb(255,255,255)" stroke-width="1" opacity="0.3215686274509804" d="M 59.5 35 L 60 37.5 L 59 37.5 L 59.5 35 Z " /><path fill="rgb(255,255,255)" stroke="rgb(255,255,255)" stroke-width="1" opacity="0.3215686274509804" d="M 16.5 46 L 19.5 50 L 16.5 46 Z " /><path fill="rgb(255,255,255)" stroke="rgb(255,255,255)" stroke-width="1" opacity="0.3215686274509804" d="M 49.5 46 L 46.5 50 L 49.5 46 Z " /><path fill="rgb(255,255,255)" stroke="rgb(255,255,255)" stroke-width="1" opacity="0.3215686274509804" d="M 12.5 50 L 15.5 54 L 12.5 50 Z " /><path fill="rgb(255,255,255)" stroke="rgb(255,255,255)" stroke-width="1" opacity="0.3215686274509804" d="M 28.5 59 L 31 59.5 L 28.5 60 L 28.5 59 Z " /><path fill="rgb(255,255,255)" stroke="rgb(255,255,255)" stroke-width="1" opacity="0.3215686274509804" d="M 35.5 59 L 38 59.5 L 35.5 60 L 35.5 59 Z " /><path fill="rgb(255,255,255)" stroke="rgb(255,255,255)" stroke-width="1" opacity="0.9372549019607843" d="M 54.5 50 L 65 60.5 L 66 63.5 L 62.5 66 L 50 54.5 L 54.5 50 Z " /></svg>