<svg width="72" height="72" version="1.1" xmlns="http://www.w3.org/2000/svg" desc="Created with imagetracer.js version 1.2.6" ><path fill="rgb(255,255,255)" stroke="rgb(255,255,255)" stroke-width="1" opacity="0.9372549019607843" d="M 31.5 11 L 30.5 13 L 31.5 11 Z " /><path fill="rgb(255,255,255)" stroke="rgb(255,255,255)" stroke-width="1" opacity="0.9372549019607843" d="M 27.5 15 L 26.5 17 L 27.5 15 Z " /><path fill="rgb(255,255,255)" stroke="rgb(255,255,255)" stroke-width="1" opacity="0.9372549019607843" d="M 47.5 15 L 48.5 17 L 47.5 15 Z " /><path fill="rgb(255,255,255)" stroke="rgb(255,255,255)" stroke-width="1" opacity="0.9372549019607843" d="M 26.5 28 L 27.5 30 L 26.5 28 Z " /><path fill="rgb(255,255,255)" stroke="rgb(255,255,255)" stroke-width="1" opacity="0.9372549019607843" d="M 48.5 28 L 47.5 30 L 48.5 28 Z " /><path fill="rgb(255,255,255)" stroke="rgb(255,255,255)" stroke-width="1" opacity="0.9372549019607843" d="M 30.5 32 L 31.5 34 L 30.5 32 Z " /><path fill="rgb(255,255,255)" stroke="rgb(255,255,255)" stroke-width="1" opacity="0.9372549019607843" d="M 44.5 32 L 43.5 34 L 44.5 32 Z " /><path fill="rgb(0,0,0)" stroke="rgb(0,0,0)" stroke-width="1" opacity="0" d="M 0 0 L 72 0 L 72 72 L 0 72 L 0 0 Z M 36 9 L 31 11 Q 26 14 24 21 Q 23 27 26 30 Q 29 34 36 36 Q 42 37 45 34 Q 49 31 51 25 Q 52 18 49 16 Q 46 9 36 9 Z M 34 39 L 21 43 Q 16 46 15 52 L 16 61 L 21 63 L 55 63 L 58 62 L 60 58 Q 61 50 58 47 L 51 41 L 42 39 L 34 39 Z " /><path fill="rgb(255,255,255)" stroke="rgb(255,255,255)" stroke-width="1" opacity="1" d="M 35.5 10 Q 43.8 9.8 47 14.5 Q 50.7 17.3 50 24.5 L 45.5 32 Q 42.7 35.7 35.5 35 L 28 30.5 Q 24.3 27.7 25 20.5 L 29.5 13 L 35.5 10 Z " /><path fill="rgb(255,255,255)" stroke="rgb(255,255,255)" stroke-width="1" opacity="0.1568627450980392" d="M 35.5 9 L 40 9.5 L 35.5 10 L 35.5 9 Z " /><path fill="rgb(255,255,255)" stroke="rgb(255,255,255)" stroke-width="1" opacity="0.1568627450980392" d="M 24.5 20 L 25 24.5 L 24 24.5 L 24.5 20 Z " /><path fill="rgb(255,255,255)" stroke="rgb(255,255,255)" stroke-width="1" opacity="0.1568627450980392" d="M 50.5 20 L 51 24.5 L 50 24.5 L 50.5 20 Z " /><path fill="rgb(255,255,255)" stroke="rgb(255,255,255)" stroke-width="1" opacity="0.1568627450980392" d="M 35.5 35 L 40 35.5 L 35.5 36 L 35.5 35 Z " /><path fill="rgb(255,255,255)" stroke="rgb(255,255,255)" stroke-width="1" opacity="0.1568627450980392" d="M 33.5 39 L 42 39.5 L 33.5 40 L 33.5 39 Z " /><path fill="rgb(255,255,255)" stroke="rgb(255,255,255)" stroke-width="1" opacity="0.1568627450980392" d="M 28.5 40 L 31 40.5 L 28.5 41 L 28.5 40 Z " /><path fill="rgb(255,255,255)" stroke="rgb(255,255,255)" stroke-width="1" opacity="0.1568627450980392" d="M 44.5 40 L 47 40.5 L 44.5 41 L 44.5 40 Z " /><path fill="rgb(255,255,255)" stroke="rgb(255,255,255)" stroke-width="1" opacity="0.1568627450980392" d="M 24.5 41 L 27 41.5 L 22.5 43 L 22.5 42 L 24.5 41 Z " /><path fill="rgb(255,255,255)" stroke="rgb(255,255,255)" stroke-width="1" opacity="0.1568627450980392" d="M 48.5 41 L 53 42.5 L 51.5 43 L 48.5 42 L 48.5 41 Z " /><path fill="rgb(255,255,255)" stroke="rgb(255,255,255)" stroke-width="1" opacity="0.1568627450980392" d="M 20.5 43 L 18 46.5 L 16.5 50 L 16 48.5 L 20.5 43 Z " /><path fill="rgb(255,255,255)" stroke="rgb(255,255,255)" stroke-width="1" opacity="0.1568627450980392" d="M 54.5 43 L 59 49.5 L 58 49.5 L 54.5 43 Z " /><path fill="rgb(255,255,255)" stroke="rgb(255,255,255)" stroke-width="1" opacity="0.1568627450980392" d="M 15.5 51 L 16 57.5 L 15 57.5 L 15.5 51 Z " /><path fill="rgb(255,255,255)" stroke="rgb(255,255,255)" stroke-width="1" opacity="0.1568627450980392" d="M 59.5 51 L 60 57.5 L 59 57.5 L 59.5 51 Z " /><path fill="rgb(255,255,255)" stroke="rgb(255,255,255)" stroke-width="1" opacity="0.1568627450980392" d="M 16.5 59 L 17 61 L 19 61.5 L 17.5 62 L 16.5 59 Z " /><path fill="rgb(255,255,255)" stroke="rgb(255,255,255)" stroke-width="1" opacity="0.1568627450980392" d="M 58.5 59 L 59 60.5 L 56.5 62 L 56.5 61 Q 59 61.7 58.5 59 Z " /><path fill="rgb(255,255,255)" stroke="rgb(255,255,255)" stroke-width="1" opacity="0.1568627450980392" d="M 20.5 62 L 55 62.5 L 20.5 63 L 20.5 62 Z " /><path fill="rgb(255,255,255)" stroke="rgb(255,255,255)" stroke-width="1" opacity="0.4" d="M 31.5 40 Q 49.2 38.3 57 46.5 Q 60.3 50.2 59 58.5 L 58 61 L 55.5 62 L 19.5 62 L 17 61 Q 15 58 16 50.5 L 21.5 43 L 31.5 40 Z " /></svg>